<?xml version="1.0" encoding="UTF-8" standalone="no"?>
<!-- Created with Inkscape (http://www.inkscape.org/) -->

<svg
   xmlns:dc="http://purl.org/dc/elements/1.1/"
   xmlns:cc="http://creativecommons.org/ns#"
   xmlns:rdf="http://www.w3.org/1999/02/22-rdf-syntax-ns#"
   xmlns:svg="http://www.w3.org/2000/svg"
   xmlns="http://www.w3.org/2000/svg"
   xmlns:sodipodi="http://sodipodi.sourceforge.net/DTD/sodipodi-0.dtd"
   xmlns:inkscape="http://www.inkscape.org/namespaces/inkscape"
   width="625.99805"
   height="155.99422"
   viewBox="0 0 165.62865 41.27347"
   version="1.1"
   id="svg8"
   sodipodi:docname="logo.svg"
   inkscape:version="0.92.2 5c3e80d, 2017-08-06"
   inkscape:export-xdpi="144"
   inkscape:export-ydpi="144">
  <defs
     id="defs2" />
  <sodipodi:namedview
     id="base"
     pagecolor="#ffffff"
     bordercolor="#666666"
     borderopacity="1.0"
     inkscape:pageopacity="0"
     inkscape:pageshadow="2"
     inkscape:zoom="0.98994949"
     inkscape:cx="25.590212"
     inkscape:cy="-8.500542"
     inkscape:document-units="px"
     inkscape:current-layer="layer1"
     showgrid="false"
     inkscape:window-width="1276"
     inkscape:window-height="755"
     inkscape:window-x="4"
     inkscape:window-y="23"
     inkscape:window-maximized="1"
     units="px"
     inkscape:snap-smooth-nodes="true"
     inkscape:snap-center="false"
     inkscape:snap-page="true"
     inkscape:snap-global="true"
     inkscape:pagecheckerboard="true"
     fit-margin-top="0"
     fit-margin-left="0"
     fit-margin-right="0"
     fit-margin-bottom="0">
    <inkscape:grid
       type="xygrid"
       id="grid10"
       empspacing="6"
       spacingx="2.6458333"
       spacingy="2.6458333"
       enabled="true"
       originx="-24.895295"
       originy="-46.98246" />
    <inkscape:grid
       type="axonomgrid"
       id="grid100"
       units="mm"
       empspacing="6"
       spacingy="10"
       enabled="false"
       originx="-24.895295"
       originy="-46.98246" />
  </sodipodi:namedview>
  <metadata
     id="metadata5">
    <rdf:RDF>
      <cc:Work
         rdf:about="">
        <dc:format>image/svg+xml</dc:format>
        <dc:type
           rdf:resource="http://purl.org/dc/dcmitype/StillImage" />
        <dc:title />
      </cc:Work>
    </rdf:RDF>
  </metadata>
  <g
     inkscape:label="Layer 1"
     inkscape:groupmode="layer"
     id="layer1"
     transform="translate(-24.895295,-208.74406)">
    <path
       inkscape:connector-curvature="0"
       id="path2890"
       d="m 101.62602,208.74406 v 2.11511 10.58385 2.91765 l 0.80046,-0.80046 h 3.43184 v -2.11719 -10.58385 -2.11511 z m 7.9375,0 v 2.11511 10.58385 20.2892 l -4.05298,4.05247 h -0.89246 l -1.40663,-1.40611 v -14.12111 l 1.40663,-1.40611 h 1.7694 2.11719 v -4.2323 h -2.11719 -3.5233 l -3.885036,3.88452 v 17.62889 l 3.885036,3.88504 h 4.40025 l 6.53139,-6.53139 v -22.0431 -10.58385 -2.11511 z m -17.281644,7.9375 -4.232291,4.2323 h 1.13274 l 2.426731,2.42672 2.426719,-2.42672 h 1.767851 2.11719 v -4.2323 h -2.11719 z m 25.219144,0 v 4.2323 h 2.11511 1.7694 l 7.93749,7.9375 h 7.9375 l 1.40612,1.40611 v 0.89245 l -10.58385,10.5823 v 8.28529 h 15.34583 8.81445 l 0.62115,-0.6196 3.26543,-3.26544 v -14.98255 l -3.88658,-3.88658 h -8.28528 v 6.53138 l -5.29115,5.2927 v 6.69727 h -6.34948 v -2.29857 l 10.58178,-10.5823 v -4.40024 l -3.88452,-3.88452 h -7.9375 l -7.93749,-7.9375 h -3.5233 z m -92.605725,2.64428 v 4.23437 h 2.11718 1.76941 l 9.34413,9.34361 v 1.23869 7.58971 l -4.05298,4.05247 h -1.76941 -2.11511 v 4.23282 h 2.11511 3.5233 l 6.53139,-6.53139 v -9.34361 h 2.29857 l 1.40663,1.40611 v 10.23607 h -0.52969 -2.11718 v 4.23282 h 2.11718 4.76199 v -16.22279 l -3.88504,-3.88503 h -5.2927 l -10.5823,-10.58385 h -3.5233 z m 34.396349,0 v 5.64048 l 5.291151,5.29115 v 15.52722 h -1.058849 v -14.63477 l -6.530869,-6.53086 h -11.459252 -2.11718 v 4.2323 h 2.11718 9.70535 l 4.052469,4.05246 v 12.88087 h -2.298567 l -1.406631,-1.40611 v -4.94337 h 0.52968 2.11719 v -4.23437 h -2.11719 -4.761982 v 10.93163 l 3.885031,3.88504 h 8.284771 5.293219 v -21.51393 l -4.94544,-4.94337 h 1.95131 l 6.69726,6.69726 v 1.24024 8.46666 2.11564 h 4.23437 v -2.11564 -8.46666 h 2.29701 l 1.40612,1.40611 v 11.47476 l -1.40612,1.40611 h -1.767848 -2.117183 v 4.23282 h 2.117183 3.52175 l 3.886588,-3.88504 v -14.98255 l -3.886588,-3.88658 h -5.291151 l -7.9375,-7.9375 z m 88.552726,0 -6.31331,6.31331 1.36788,1.36788 v -0.80202 h 4.0535 l 1.23971,-1.2392 v -4.05195 h 3.17397 4.76353 v -1.58802 z m 37.04115,0 -4.23333,4.23437 h 5.63945 v 0.34778 l 0.34778,-0.34778 h 1.7694 2.11512 v -4.23437 h -2.11512 z m -132.291133,2.64635 -1.588022,1.58802 h 6.42596 l 0.800991,0.80098 v -2.389 z m 25.219128,0 v 4.23282 h 2.115111 7.060549 l 6.69934,6.69881 v 12.88087 h -2.299089 l -1.40611,-1.40611 v -4.94337 h 0.529159 2.11719 v -4.23437 h -2.11719 -4.76146 v 10.93163 l 3.88452,3.88504 h 8.285281 v -18.86759 l -9.177739,-9.17773 h -8.814451 z m 17.11316,0 -2.34301,2.34301 2.99362,2.99362 1.103292,-1.10381 h 1.769398 1.331701 l 0.785494,-0.78548 v -3.44734 h -2.117195 z m 19.927475,0 v 4.23282 h 2.11718 1.76785 l 4.05247,4.05246 v 15.52722 h -2.29857 l -1.40663,-1.40611 v -4.94337 h 0.52968 2.11719 v -4.23437 h -2.11719 -4.76198 v 10.93163 l 3.88503,3.88504 h 8.28476 v -21.51393 l -6.53086,-6.53139 h -3.52175 z m 15.07245,0 1.58802,1.58802 h 6.09369 v -1.58802 h -2.11719 z m 19.32441,0 v 4.23282 h 2.11511 9.7069 l 4.05299,4.05246 v 6.18361 l -7.9375,7.9375 v 5.63893 h 7.9375 4.76146 2.11718 4.05092 l 9.17774,-9.17619 v -16.22226 h -8.28529 l -6.53138,6.53086 v 8.28529 h 7.40833 2.11718 v -4.23437 h -2.11718 -3.17603 v -2.29702 l 4.05298,-4.05246 h 2.29909 v 10.23606 l -6.69934,6.69727 h -2.29702 -2.11718 -4.76146 -3.35742 l 7.58972,-7.58972 v -9.69139 l -6.53139,-6.53139 h -11.4608 z m -111.925985,2.64687 4.2323,4.2323 h 0.80099 v -0.34778 l -3.88504,-3.88452 z m 39.081851,0 -1.020601,1.02009 0.56637,0.56586 h 0.802021 v -1.58595 z m 90.562944,0 3.44682,3.44682 v 0.78548 h 0.80098 l 0.78703,-0.78652 v -3.44578 h -2.11718 z m -136.781305,1.84536 v 14.3769 l 3.66592,3.66593 2.9931,-2.9931 -2.42672,-2.42673 v -8.39173 z m 52.114651,0.79892 1.58801,1.58802 h 2.207099 l 1.020609,-1.02061 -0.567399,-0.56741 z m 32.550984,0 v 6.87917 h 1.58802 v -5.63893 l -1.24075,-1.24024 z m 38.88651,0 0.0455,0.0455 0.0455,-0.0455 z m 2.04173,0 -1.02113,1.02061 2.42725,2.42672 v 1.13379 l 2.99206,-2.9931 h 2.04277 l -1.58802,-1.58802 z m -35.93836,1.54254 -2.34301,2.34404 v 2.99259 h 2.11511 2.11719 v -1.23869 -2.20865 z m -31.448735,0.30128 v 5.03535 h 2.11718 2.11719 v -0.80099 z m -18.51928,0.002 v 9.0873 l 1.585431,1.58544 v -5.98724 -1.23816 -1.86139 z m -21.9692,0.80047 2.389,2.389 v -2.04123 l 0.34778,-0.34778 z m 57.150515,0 -0.78703,0.78548 v 13.24571 l 0.78703,0.78548 h 0.0155 l 1.88981,-1.88981 -1.10433,-1.10433 v -11.82254 z m 26.91153,0 -1.23972,1.24023 v 6.4394 l 4.2323,-4.23178 v -0.45372 l 1.40663,-1.40611 h 0.4532 l 0.78704,-0.78704 v -0.0155 l -0.78549,-0.78548 z m 47.17076,0 -3.43183,3.43183 v 0.80099 h 1.58802 v -1.2387 l 2.64634,-2.64635 v -0.34778 z m -30.94747,1.58802 h 2.29702 l 1.40612,1.40612 v 11.47476 l -1.40612,1.40611 h -4.94336 -1.24024 l -1.40663,-1.40611 v -3.53726 l 5.29321,-5.2927 z m -70.378635,1.05885 v 5.63945 l 1.585431,1.58543 v -5.98724 l -1.23765,-1.23765 z m 71.437495,0 v 3.43131 l -2.64687,2.64584 v 6.09265 h 3.44733 l 0.78497,-0.78548 v -10.59937 l -0.78497,-0.78496 z m -113.771865,2.64433 v 4.23437 h 1.58802 v -4.23437 z m 7.9375,0 v 4.23437 h 1.58802 v -3.44734 l -0.78703,-0.78703 z m 84.666145,0 v 5.03483 l 1.58802,-1.58801 v -3.44682 z m 29.10572,0 v 4.23437 h 2.11511 0.52917 v 0.80253 l 4.23436,-4.23436 v -0.80254 h -4.76353 z m 12.1698,4.49017 -4.2323,4.23229 v 0.80306 h 2.11511 2.11719 v -4.2323 z m -78.316666,0.80305 v 3.44682 l 0.785482,0.78548 h 0.802539 v -4.2323 z m 29.103656,0 v 3.44682 l 0.78703,0.78548 h 0.80099 v -4.2323 z m 52.91821,0 v 2.99206 l 1.02009,1.02061 3.21221,-3.2122 v -0.80047 z m -38.10207,1.84536 -1.58543,1.58595 v 0.80099 h 1.93321 l -0.34778,-0.34778 z m -78.316145,0.45115 v 1.15032 l 0.78703,0.78548 h 0.800991 v -0.34778 z m 15.875,0.34778 v 1.24024 l -1.40612,1.40611 h -1.23816 v 4.23282 h 2.992062 1.240239 v -5.29115 h 2.646349 v -1.58802 z m 41.275525,1.84537 -5.03484,5.0338 h 3.7946 l 2.34405,-2.34353 -1.10381,-1.10381 z m -72.238495,0.80098 -3.21324,3.21221 1.0201,1.02061 h 2.99413 v -4.23282 z m 140.228645,0 -3.21221,3.21221 1.02061,1.02061 h 3.52175 2.11719 v -4.23282 h -2.11719 z m -96.564643,1.31465 -2.918161,2.91817 h 5.03328 v -0.80306 z m -33.867183,0.52917 v 2.389 h 2.389003 z m 47.625,0 v 0.0915 l 0.0455,-0.046 z m 57.150506,5.3e-4 -2.38899,2.38849 h 0.27181 2.11718 z"
       style="color:#000000;font-style:normal;font-variant:normal;font-weight:normal;font-stretch:normal;font-size:medium;line-height:normal;font-family:sans-serif;font-variant-ligatures:normal;font-variant-position:normal;font-variant-caps:normal;font-variant-numeric:normal;font-variant-alternates:normal;font-feature-settings:normal;text-indent:0;text-align:start;text-decoration:none;text-decoration-line:none;text-decoration-style:solid;text-decoration-color:#000000;letter-spacing:normal;word-spacing:normal;text-transform:none;writing-mode:lr-tb;direction:ltr;text-orientation:mixed;dominant-baseline:auto;baseline-shift:baseline;text-anchor:start;white-space:normal;shape-padding:0;clip-rule:nonzero;display:inline;overflow:visible;visibility:visible;opacity:1;isolation:auto;mix-blend-mode:normal;color-interpolation:sRGB;color-interpolation-filters:linearRGB;solid-color:#000000;solid-opacity:1;vector-effect:none;fill:#ee0000;fill-opacity:1;fill-rule:nonzero;stroke:none;stroke-width:4.23333311;stroke-linecap:square;stroke-linejoin:miter;stroke-miterlimit:10;stroke-dasharray:none;stroke-dashoffset:0;stroke-opacity:1;color-rendering:auto;image-rendering:auto;shape-rendering:auto;text-rendering:auto;enable-background:accumulate" />
  </g>
</svg>
