<?xml version="1.0" encoding="UTF-8" standalone="no"?>
<!-- Created with Inkscape (http://www.inkscape.org/) -->

<svg
   xmlns:dc="http://purl.org/dc/elements/1.1/"
   xmlns:cc="http://creativecommons.org/ns#"
   xmlns:rdf="http://www.w3.org/1999/02/22-rdf-syntax-ns#"
   xmlns:svg="http://www.w3.org/2000/svg"
   xmlns="http://www.w3.org/2000/svg"
   xmlns:sodipodi="http://sodipodi.sourceforge.net/DTD/sodipodi-0.dtd"
   xmlns:inkscape="http://www.inkscape.org/namespaces/inkscape"
   width="270"
   height="74.898613"
   viewBox="0 0 71.4375 19.816925"
   version="1.1"
   id="svg8"
   sodipodi:docname="logo.svg"
   inkscape:version="0.92.2 5c3e80d, 2017-08-06"
   inkscape:export-xdpi="144"
   inkscape:export-ydpi="144">
  <defs
     id="defs2" />
  <sodipodi:namedview
     id="base"
     pagecolor="#ffffff"
     bordercolor="#666666"
     borderopacity="1.0"
     inkscape:pageopacity="0"
     inkscape:pageshadow="2"
     inkscape:zoom="2.8"
     inkscape:cx="148.63706"
     inkscape:cy="25.287529"
     inkscape:document-units="px"
     inkscape:current-layer="layer1"
     showgrid="false"
     inkscape:window-width="1276"
     inkscape:window-height="755"
     inkscape:window-x="4"
     inkscape:window-y="23"
     inkscape:window-maximized="1"
     units="px"
     inkscape:snap-smooth-nodes="true"
     inkscape:snap-center="false"
     inkscape:snap-page="true"
     inkscape:snap-global="true"
     inkscape:pagecheckerboard="true"
     fit-margin-top="0"
     fit-margin-left="0"
     fit-margin-right="0"
     fit-margin-bottom="0">
    <inkscape:grid
       type="xygrid"
       id="grid10"
       empspacing="6"
       spacingx="2.6458333"
       spacingy="2.6458333"
       enabled="true"
       originx="-43.65625"
       originy="-69.466539" />
    <inkscape:grid
       type="axonomgrid"
       id="grid100"
       units="mm"
       empspacing="6"
       spacingy="10"
       enabled="false"
       originx="-43.65625"
       originy="-69.466539" />
  </sodipodi:namedview>
  <metadata
     id="metadata5">
    <rdf:RDF>
      <cc:Work
         rdf:about="">
        <dc:format>image/svg+xml</dc:format>
        <dc:type
           rdf:resource="http://purl.org/dc/dcmitype/StillImage" />
        <dc:title />
      </cc:Work>
    </rdf:RDF>
  </metadata>
  <g
     inkscape:label="Layer 1"
     inkscape:groupmode="layer"
     id="layer1"
     transform="translate(-43.65625,-207.71653)">
    <path
       style="color:#000000;font-style:normal;font-variant:normal;font-weight:normal;font-stretch:normal;font-size:medium;line-height:normal;font-family:sans-serif;font-variant-ligatures:normal;font-variant-position:normal;font-variant-caps:normal;font-variant-numeric:normal;font-variant-alternates:normal;font-feature-settings:normal;text-indent:0;text-align:start;text-decoration:none;text-decoration-line:none;text-decoration-style:solid;text-decoration-color:#000000;letter-spacing:normal;word-spacing:normal;text-transform:none;writing-mode:lr-tb;direction:ltr;text-orientation:mixed;dominant-baseline:auto;baseline-shift:baseline;text-anchor:start;white-space:normal;shape-padding:0;clip-rule:nonzero;display:inline;overflow:visible;visibility:visible;opacity:0.1;isolation:auto;mix-blend-mode:normal;color-interpolation:sRGB;color-interpolation-filters:linearRGB;solid-color:#000000;solid-opacity:1;vector-effect:none;fill:#000000;fill-opacity:1;fill-rule:nonzero;stroke:none;stroke-width:2.73699999;stroke-linecap:square;stroke-linejoin:miter;stroke-miterlimit:4;stroke-dasharray:none;stroke-dashoffset:0;stroke-opacity:1;color-rendering:auto;image-rendering:auto;shape-rendering:auto;text-rendering:auto;enable-background:accumulate"
       d="M 125.22656 0 L 125.17969 1.3203125 L 125.09375 3.75 L 124.66406 16.052734 L 122.77539 16.052734 L 122.10938 9.3828125 L 117.81641 9.3828125 L 112.25781 9.3828125 L 104.51172 15.513672 L 104.62695 16.052734 L 93.84375 16.052734 L 89.556641 16.052734 L 88.960938 19.525391 L 87.541016 19.525391 L 85.054688 21.423828 L 76.919922 12.673828 L 63.171875 12.673828 L 62.234375 16.052734 L 52.927734 16.052734 L 48.457031 19.113281 L 48.720703 19.525391 L 41.654297 19.525391 L 37.521484 19.525391 L 35.675781 24.525391 L 31.714844 19.525391 L 28.417969 19.525391 L 22.820312 12.673828 L 17.021484 12.673828 L 13.060547 12.673828 L 9.6992188 19.746094 L 15.066406 25.505859 L 6.6230469 44.482422 L 10.503906 51.048828 L 8.1464844 51.048828 L 3.7011719 51.048828 L -0.34179688 60.138672 L 20.984375 74.898438 L 24.511719 74.898438 L 30.113281 74.898438 L 32.347656 73.298828 L 34.384766 74.898438 L 40.193359 74.898438 L 40.21875 74.832031 L 40.298828 74.898438 L 43.896484 74.898438 L 51.863281 74.898438 L 51.867188 74.886719 L 51.878906 74.898438 L 57.541016 74.898438 L 58.498047 74.898438 L 70.255859 74.898438 L 78.853516 74.898438 L 78.855469 74.900391 L 83.947266 74.900391 L 86.894531 74.900391 L 86.894531 74.898438 L 90.417969 74.898438 L 96.09375 74.898438 L 96.667969 74.394531 L 96.90625 74.898438 L 106.36328 74.898438 L 106.54492 73.363281 L 107.89648 74.898438 L 121.94922 74.898438 L 122.0957 72.298828 L 123.53125 70.941406 L 127.3125 74.898438 L 134.91797 74.898438 L 135.14648 74.666016 L 135.14258 74.900391 L 142.68359 74.900391 L 146.4668 70.941406 L 150.60938 74.898438 L 163.63281 74.898438 L 164.26172 74.898438 L 187.33398 74.898438 L 199.77148 74.898438 L 200.89258 74.898438 L 202.8418 74.898438 L 206.46094 74.898438 L 206.55078 74.898438 L 219.125 74.898438 L 226.10156 74.898438 L 229.20508 74.898438 L 235.61328 74.898438 L 237.65039 73.298828 L 239.88477 74.898438 L 245.48438 74.898438 L 249.01562 74.898438 L 270.34375 60.138672 L 266.29883 51.050781 L 261.84961 51.050781 L 259.49414 51.050781 L 263.37695 44.484375 L 254.93359 25.501953 L 260.29688 19.746094 L 256.93555 12.673828 L 252.97852 12.673828 L 247.17773 12.673828 L 241.58008 19.525391 L 238.2832 19.525391 L 234.32227 24.525391 L 232.47656 19.525391 L 228.3457 19.525391 L 223.23828 19.525391 L 222.89062 20.039062 L 217.07031 16.052734 L 207.76562 16.052734 L 206.82812 12.673828 L 193.07812 12.673828 L 184.94531 21.423828 L 182.45898 19.525391 L 181.03711 19.525391 L 180.44336 16.052734 L 176.15234 16.052734 L 166.83594 16.052734 L 166.72656 16.496094 L 157.74023 9.3828125 L 152.17969 9.3828125 L 147.88867 9.3828125 L 147.22266 16.052734 L 145.33594 16.052734 L 144.9043 3.7519531 L 144.77539 0 L 136.22852 0 L 135.89453 19.525391 L 134.10547 19.525391 L 133.77148 0 L 125.22656 0 z M 126.54688 1.3691406 L 132.42578 1.3691406 L 132.40039 3.7988281 L 132.26172 16.740234 L 132.23438 19.494141 L 127.10938 19.494141 L 125.87695 20.550781 L 126.00977 16.740234 L 126.46094 3.7988281 L 126.54688 1.3691406 z M 137.57422 1.3691406 L 143.45312 1.3691406 L 143.53711 3.7988281 L 143.99023 16.740234 L 145.10352 48.632812 L 134.23047 59.658203 L 126.64453 59.658203 L 120.28125 53 L 121.62695 26.162109 L 127.72266 20.894531 L 133.01367 20.894531 L 136.19141 20.894531 L 136.2168 26.644531 L 132.96875 26.644531 L 130.25391 26.644531 L 128.04492 28.609375 L 127.49023 50.089844 L 129.79688 52.417969 L 131.29883 52.417969 L 138.04688 45.808594 L 137.73633 16.740234 L 137.59961 3.7988281 L 137.57422 1.3691406 z M 112.73438 10.751953 L 117.81641 10.751953 L 120.87109 10.751953 L 120.57422 16.060547 L 117.45312 16.060547 L 114.84961 16.060547 L 110.98242 19.205078 L 107.69727 16.060547 L 106.02734 16.060547 L 112.73438 10.751953 z M 149.12695 10.751953 L 152.17969 10.751953 L 157.26367 10.751953 L 170.08008 20.894531 L 181.99609 20.894531 L 188.89062 26.162109 L 190.15039 32.390625 L 175.85938 48.632812 L 176.39453 52.417969 L 187.07422 52.417969 L 185.16211 41.652344 L 192.07812 33.6875 L 190.1582 24.457031 L 202.76562 24.457031 L 210.18555 29.873047 L 216.61328 53 L 212.55469 58.576172 L 211.76367 59.658203 L 196.57031 59.658203 L 170.11719 59.658203 L 168.49805 45.808594 L 183.06836 29.873047 L 182.84375 28.609375 L 180.33789 26.644531 L 168.16016 26.644531 L 155.15039 16.060547 L 152.54297 16.060547 L 149.42578 16.060547 L 149.12695 10.751953 z M 13.925781 14.042969 L 17.021484 14.042969 L 22.171875 14.042969 L 32.261719 28.121094 L 40.427734 28.121094 L 44.587891 33.6875 L 36.029297 59.658203 L 27.820312 59.658203 L 24.169922 59.658203 L 26.841797 52.417969 L 30.404297 52.417969 L 31.294922 52.417969 L 37.005859 36.277344 L 35.523438 34.197266 L 31.896484 34.197266 L 26.482422 48.632812 L 11.087891 59.658203 L 5.0136719 59.658203 L 1.3691406 59.658203 L 4.5898438 52.417969 L 8.1464844 52.417969 L 11.123047 52.417969 L 20.582031 45.808594 L 25.21875 34.197266 L 25.941406 32.390625 L 17.138672 19.494141 L 14.496094 19.494141 L 11.333984 19.494141 L 13.925781 14.042969 z M 64.212891 14.042969 L 76.324219 14.042969 L 86.005859 24.457031 L 94.056641 24.457031 L 99.255859 29.873047 L 96.201172 53 L 88.621094 59.658203 L 82.550781 59.658203 L 78.900391 59.658203 L 80.253906 52.417969 L 83.814453 52.417969 L 86.789062 52.417969 L 89.517578 50.089844 L 92.287109 32.390625 L 90.416016 30.369141 L 86.841797 30.369141 L 84.595703 43.017578 L 84 46.363281 L 77.023438 46.363281 L 77.699219 43.017578 L 80.253906 30.369141 L 80.609375 28.609375 L 72.451172 19.494141 L 69.537109 19.494141 L 75.433594 26.162109 L 67.955078 59.658203 L 58.832031 59.658203 L 44.550781 59.658203 L 40.005859 53 L 45.583984 35.759766 L 53.138672 35.759766 L 56.498047 35.759766 L 54.671875 42.191406 L 51.234375 42.191406 L 50.373047 42.191406 L 48.011719 50.089844 L 49.681641 52.417969 L 53.546875 52.417969 L 59.113281 32.390625 L 54.492188 26.644531 L 39.601562 26.644531 L 36.353516 26.644531 L 38.474609 20.894531 L 41.654297 20.894531 L 58.857422 20.894531 L 66.384766 29.873047 L 60.667969 52.417969 L 62.449219 52.417969 L 68.341797 28.609375 L 62.179688 21.357422 L 64.212891 14.042969 z M 193.67383 14.042969 L 205.78711 14.042969 L 206.34766 16.060547 L 199.32812 16.060547 L 194.65039 16.060547 L 195.88086 21.355469 L 194.39258 23.019531 L 188.25586 23.019531 L 188.47656 24.107422 L 186.03906 22.257812 L 193.67383 14.042969 z M 247.82617 14.042969 L 252.97852 14.042969 L 256.07031 14.042969 L 258.66211 19.494141 L 255.50195 19.494141 L 252.86133 19.494141 L 252.54883 19.953125 L 252.3418 19.494141 L 243.91992 19.494141 L 247.82617 14.042969 z M 53.351562 17.421875 L 61.705078 17.421875 L 60.816406 20.552734 L 59.919922 19.494141 L 50.324219 19.494141 L 53.351562 17.421875 z M 90.710938 17.421875 L 93.84375 17.421875 L 106.90234 17.421875 L 119.79688 29.873047 L 118.125 59.658203 L 103.8418 59.658203 L 97.984375 53 L 100.1582 35.759766 L 107.71289 35.759766 L 111.07227 35.759766 L 110.51562 42.191406 L 107.07812 42.191406 L 106.21875 42.191406 L 105.41406 50.089844 L 107.54297 52.417969 L 111.41016 52.417969 L 113.02344 32.390625 L 103.63672 23.019531 L 92.951172 23.019531 L 89.75 23.019531 L 90.710938 17.421875 z M 116.0625 17.421875 L 121.28125 17.421875 L 124.41797 17.421875 L 124.23047 21.962891 L 122.99805 23.019531 L 120.98438 23.019531 L 118.30469 23.019531 L 116.53125 24.519531 L 112.32422 20.490234 L 116.0625 17.421875 z M 145.58203 17.421875 L 148.71875 17.421875 L 153.93555 17.421875 L 164.57812 26.162109 L 168.29102 59.658203 L 154.00977 59.658203 L 147.04102 53 L 146.33398 35.759766 L 153.88867 35.759766 L 157.24805 35.759766 L 157.76562 42.191406 L 154.32812 42.191406 L 153.46875 42.191406 L 153.98438 50.089844 L 156.50195 52.417969 L 160.36914 52.417969 L 158.30859 28.609375 L 151.69141 23.019531 L 149.01562 23.019531 L 145.81055 23.019531 L 145.58203 17.421875 z M 167.91016 17.421875 L 176.15234 17.421875 L 179.28906 17.421875 L 179.64453 19.494141 L 170.54492 19.494141 L 167.91016 17.421875 z M 196.53516 17.421875 L 199.66992 17.421875 L 216.64648 17.421875 L 229.41406 26.162109 L 234.41016 40.277344 L 225.9375 52.417969 L 231.58594 52.417969 L 239.5957 52.417969 L 243.1582 52.417969 L 247.02148 52.417969 L 253.76172 41.652344 L 247.44922 26.644531 L 243.92188 26.644531 L 239.91016 32.390625 L 241.20508 35.759766 L 246.24414 35.759766 L 249.60352 35.759766 L 252.26953 42.191406 L 248.83203 42.191406 L 236.80469 42.191406 L 232.37109 29.873047 L 238.94531 20.894531 L 251.38477 20.894531 L 261.83984 44.394531 L 252.8125 59.658203 L 245.82812 59.658203 L 242.17969 59.658203 L 233.9707 59.658203 L 220.28906 59.658203 L 217.57227 50.089844 L 226.70703 37.613281 L 223.74023 28.609375 L 215.76367 23.019531 L 201.07227 23.019531 L 197.87109 23.019531 L 196.53516 17.421875 z M 29.330078 20.894531 L 31.052734 20.894531 L 34.910156 26.162109 L 34.730469 26.644531 L 33.5 26.644531 L 29.330078 20.894531 z M 88.003906 20.894531 L 88.525391 20.894531 L 88.148438 23.019531 L 86.933594 23.019531 L 86.21875 22.257812 L 88.003906 20.894531 z M 223.96484 20.894531 L 228.3457 20.894531 L 231.52344 20.894531 L 233.24414 25.556641 L 232.4375 26.644531 L 231.20898 26.644531 L 230.81836 25.556641 L 223.96484 20.894531 z M 17.513672 23.371094 L 21.462891 29.228516 L 16.238281 41.652344 L 18.621094 45.460938 L 11.652344 50.302734 L 8.1601562 44.394531 L 17.513672 23.371094 z M 96.335938 24.457031 L 102.80078 24.457031 L 103.57227 25.234375 L 101.83984 26.644531 L 98.453125 26.644531 L 96.335938 24.457031 z M 145.86914 24.457031 L 146.39844 24.457031 L 148.37109 26.162109 L 148.77539 34.197266 L 146.26953 34.197266 L 145.86914 24.457031 z M 205.04492 24.457031 L 205.18359 24.457031 L 205.13086 24.519531 L 205.04492 24.457031 z M 208.15234 24.457031 L 215.53711 24.457031 L 218.63867 26.644531 L 215.50391 26.644531 L 212.11133 30.865234 L 211.6543 29.25 L 206.97656 25.857422 L 208.15234 24.457031 z M 153.61133 26.580078 L 156.72266 29.228516 L 156.97656 32.390625 L 157.12305 34.197266 L 153.78125 34.197266 L 150.44531 34.197266 L 150.20312 29.873047 L 153.61133 26.580078 z M 105.32422 27 L 111.30859 33.025391 L 111.20703 34.197266 L 107.86719 34.197266 L 104.52734 34.197266 L 105.32422 27 z M 76.873047 27.001953 L 78.845703 29.228516 L 78.291016 31.888672 L 77.917969 33.6875 L 76.035156 42.732422 L 73.988281 40.279297 L 76.873047 27.001953 z M 42.736328 28.121094 L 46.957031 28.121094 L 46.259766 28.609375 L 45.302734 31.515625 L 42.736328 28.121094 z M 130.90625 28.121094 L 132.14258 28.121094 L 131.95312 45.808594 L 133.76172 47.580078 L 130.58984 50.662109 L 130.5625 50.662109 L 129.27148 49.373047 L 129.66992 29.228516 L 130.90625 28.121094 z M 172.42383 28.121094 L 172.42578 28.123047 L 179.91406 28.123047 L 181.31445 29.230469 L 181.31836 29.25 L 180.28711 30.369141 L 179.58203 30.369141 L 177.70898 32.390625 L 177.8125 33.048828 L 171.99609 39.351562 L 170.74414 29.873047 L 172.42383 28.121094 z M 245.19922 28.121094 L 246.43555 28.121094 L 246.63867 28.609375 L 244.05859 32.390625 L 244.78125 34.197266 L 242.27539 34.197266 L 241.81836 33.025391 L 245.19922 28.121094 z M 197.97656 30.369141 L 199.34766 36.275391 L 192.57422 44.394531 L 193.72461 50.089844 L 196.56055 52.417969 L 198.64648 52.417969 L 206.96289 52.417969 L 208.73828 50.089844 L 204.25 32.390625 L 201.54883 30.369141 L 197.97656 30.369141 z M 88.228516 31.888672 L 88.773438 31.888672 L 90.416016 33.685547 L 88.947266 42.730469 L 86.789062 40.277344 L 88.228516 31.888672 z M 199.98438 31.888672 L 201.23828 31.888672 L 202.74805 33.025391 L 206.79297 49.373047 L 205.80078 50.662109 L 200.03516 50.662109 L 197.86719 40.951172 L 201.1875 36.931641 L 199.98438 31.888672 z M 20.396484 35.759766 L 22.916016 35.759766 L 20.306641 42.191406 L 17.728516 42.191406 L 20.396484 35.759766 z M 32.990234 35.759766 L 34.259766 35.759766 L 35.087891 36.933594 L 33.193359 42.191406 L 30.615234 42.191406 L 32.990234 35.759766 z M 167.32227 35.759766 L 169.8418 35.759766 L 170.5 40.972656 L 168.2207 43.441406 L 167.32227 35.759766 z M 213.50195 35.759766 L 216.85742 35.759766 L 224.41602 35.759766 L 224.80273 36.957031 L 219.99609 43.445312 L 219.62109 42.191406 L 218.76172 42.191406 L 215.32812 42.191406 L 213.50195 35.759766 z M 235.22852 42.589844 L 235.67188 43.847656 L 238.08398 50.664062 L 234.54492 50.664062 L 231.00781 50.664062 L 230.57227 49.345703 L 235.22852 42.589844 z M 107.7793 43.847656 L 110.37109 43.847656 L 109.78125 50.664062 L 108.43945 50.664062 L 107.25 49.375 L 107.7793 43.847656 z M 155.30664 43.847656 L 157.89844 43.847656 L 158.44727 50.664062 L 157.10742 50.664062 L 155.70117 49.375 L 155.30664 43.847656 z M 241.72266 43.847656 L 248.63477 43.847656 L 249.14062 45.113281 L 245.84766 50.302734 L 243.51758 48.632812 L 241.72266 43.847656 z M 179.95898 46.779297 L 180.47852 50.091797 L 181.14844 50.664062 L 177.91602 50.664062 L 177.72266 49.349609 L 179.95898 46.779297 z M 50.535156 47.505859 L 52.427734 50.091797 L 52.265625 50.664062 L 50.925781 50.664062 L 49.988281 49.375 L 50.535156 47.505859 z M 76.679688 48.068359 L 83.697266 48.068359 L 83.236328 50.664062 L 78.810547 50.664062 L 77.076172 59.658203 L 74.939453 59.658203 L 69.78125 59.658203 L 71.353516 52.419922 L 73.435547 52.419922 L 76.271484 50.091797 L 76.679688 48.068359 z M 145.18945 51.087891 L 145.2832 53.736328 L 147.22461 55.607422 L 143.35156 59.658203 L 136.81055 59.658203 L 145.18945 51.087891 z M 23.714844 52.419922 L 25.0625 52.419922 L 22.345703 59.658203 L 17.185547 59.658203 L 16.134766 57.880859 L 23.714844 52.419922 z M 259.61133 52.419922 L 261.84961 52.419922 L 265.41016 52.419922 L 268.63281 59.658203 L 264.98242 59.658203 L 258.91211 59.658203 L 256.42969 57.880859 L 259.61133 52.419922 z M 96.882812 54.630859 L 100.04297 58.257812 L 99.878906 59.658203 L 91.203125 59.658203 L 96.882812 54.630859 z M 39.189453 55.529297 L 41.970703 59.658203 L 37.853516 59.658203 L 39.189453 55.529297 z M 120.15625 55.529297 L 120.22852 55.607422 L 120.14844 55.685547 L 120.15625 55.529297 z M 217.31641 55.529297 L 218.46289 59.658203 L 214.81445 59.658203 L 214.3457 59.658203 L 217.31641 55.529297 z "
       transform="matrix(0.26458334,0,0,0.26458334,43.65625,207.71653)"
       id="path2557" />
  </g>
</svg>
